<svg width="1192" height="915" viewBox="0 0 1192 915" fill="none" xmlns="http://www.w3.org/2000/svg">
<path d="M572.151 358.765L563.122 348.309L564.26 362.077L588.333 653.217L318.35 766.533L305.554 771.904L319.067 775.064L603.916 841.685L627.988 1132.82L629.128 1146.61L636.317 1134.78L788.299 884.808L1073.16 951.432L1086.64 954.584L1077.59 944.109L886.672 723.007L1038.65 473.045L1045.86 461.187L1033.06 466.558L763.078 579.874L572.151 358.765Z" stroke="white" stroke-opacity="0.4" stroke-width="9"/>
<path d="M550.702 286.96L541.641 276.433L542.808 290.274L572.081 637.57L251.575 772.091L238.835 777.438L252.281 780.619L590.892 860.737L620.166 1208.04L621.33 1221.86L628.501 1209.99L808.492 912.222L1147.09 992.335L1160.58 995.527L1151.53 985.02L924.164 720.857L1104.16 423.071L1111.31 411.247L1098.57 416.594L778.064 551.115L550.702 286.96Z" stroke="white" stroke-opacity="0.3" stroke-width="9"/>
<path d="M520.767 214.208L511.695 203.658L512.871 217.522L547.175 622.147L174.314 778.642L161.592 783.982L175.016 787.17L569.1 880.742L603.406 1285.38L604.578 1299.2L611.743 1287.33L820.98 940.55L1215.04 1034.12L1228.53 1037.32L1219.49 1026.8L954.724 718.89L1163.98 372.088L1171.1 360.274L1158.38 365.614L785.52 522.11L520.767 214.208Z" stroke="white" stroke-opacity="0.2" stroke-width="9"/>
</svg>
